<?xml version="1.0" encoding="UTF-8"?>
<svg id="Layer_2" data-name="Layer 2" xmlns="http://www.w3.org/2000/svg" viewBox="0 0 1924.33 46.08">
  <defs>
    <style>
      .cls-1 {
        fill: #231f20;
        stroke-width: 0px;
      }
    </style>
  </defs>
  <g id="Layer_1-2" data-name="Layer 1">
    <g>
      <path class="cls-1" d="m23.55,0c6.77,0,12.46,2.95,16.63,7.7l-6.12,6.12c-2.81-2.88-6.34-4.75-10.51-4.75-7.7,0-13.83,5.98-13.83,13.68s5.11,14.26,13.83,14.26c4.18,0,7.71-1.87,10.51-4.75l6.12,6.12c-4.18,4.75-9.87,7.71-16.63,7.71C10.01,46.08,0,37.01,0,23.26,0,8.5,12.31,0,23.55,0Z"/>
      <path class="cls-1" d="m63.94,0c12.75,0,23.04,10.3,23.04,23.04s-10.3,23.04-23.04,23.04-23.04-10.3-23.04-23.04S51.19,0,63.94,0Zm0,36.65c7.49,0,13.61-6.12,13.61-13.61s-6.12-13.61-13.61-13.61-13.61,6.12-13.61,13.61,6.12,13.61,13.61,13.61Z"/>
      <path class="cls-1" d="m91.66,1.44h9.5l10.08,23.91L121.32,1.44h9.36v43.2h-9.36v-21.1l-9.58,22.54h-1.08l-9.65-22.83v21.39h-9.36V1.44Z"/>
      <path class="cls-1" d="m135.72,1.44h16.27c6.7,0,12.03,5.33,12.03,12.03,0,4.25-1.66,6.98-4.68,8.86v.14c4.32,2.81,6.26,6.48,6.26,10.87,0,5.9-4.39,11.3-12.02,11.3h-17.86V1.44Zm14.47,17.28c2.59,0,4.32-1.58,4.32-4.18,0-2.38-1.73-4.25-4.32-4.25h-5.11v8.42h5.11Zm1.37,16.99c2.52,0,4.1-1.66,4.1-4.1,0-2.23-1.58-3.96-4.1-3.96h-6.48v8.06h6.48Z"/>
      <path class="cls-1" d="m169.2,1.44h9.36v43.2h-9.36V1.44Z"/>
      <path class="cls-1" d="m183.6,1.44h9.36l17.14,26.07h.14V1.44h9.36v43.2h-9.36l-17.14-26.07h-.14v26.07h-9.36V1.44Z"/>
      <path class="cls-1" d="m224.64,1.44h9.36v43.2h-9.36V1.44Z"/>
      <path class="cls-1" d="m239.04,1.44h9.36l17.14,26.07h.14V1.44h9.36v43.2h-9.36l-17.14-26.07h-.14v26.07h-9.36V1.44Z"/>
      <path class="cls-1" d="m303.26,0c6.77,0,12.1,2.66,16.27,7.42l-6.12,6.12c-2.81-2.88-5.98-4.46-10.15-4.46-7.7,0-13.75,6.05-13.75,13.75s5.9,13.83,13.39,13.83,11.16-3.6,12.31-8.78h-12.82v-9h22.97v4.32c0,12.75-7.63,22.9-22.47,22.9-12.75,0-22.97-10.3-22.97-23.04,0-14.76,12.1-23.04,23.33-23.04Z"/>
      <path class="cls-1" d="m348.12,1.44h9.5l10.08,23.91,10.08-23.91h9.36v43.2h-9.36v-21.1l-9.58,22.54h-1.08l-9.65-22.83v21.39h-9.36V1.44Z"/>
      <path class="cls-1" d="m410.61,0h1.22l19.87,44.64h-10.08l-2.02-4.54h-16.85l-1.94,4.54h-10.08L410.61,0Zm5.54,32.19l-4.9-11.52h-.14l-4.97,11.52h10.01Z"/>
      <path class="cls-1" d="m436.75,10.44h-9.36V1.44h28.08v9h-9.36v34.2h-9.36V10.44Z"/>
      <path class="cls-1" d="m459.07,1.44h9.36v17.28h16.85V1.44h9.36v43.2h-9.36v-17.64h-16.85v17.64h-9.36V1.44Z"/>
      <path class="cls-1" d="m499.68,1.44h26.64v9h-17.28v8.28h15.91v9h-15.91v7.92h18v9h-27.36V1.44Z"/>
      <path class="cls-1" d="m530.64,1.44h9.5l10.08,23.91,10.08-23.91h9.36v43.2h-9.36v-21.1l-9.58,22.54h-1.08l-9.65-22.83v21.39h-9.36V1.44Z"/>
      <path class="cls-1" d="m593.13,0h1.22l19.87,44.64h-10.08l-2.02-4.54h-16.85l-1.94,4.54h-10.08L593.13,0Zm5.54,32.19l-4.9-11.52h-.14l-4.97,11.52h10.01Z"/>
      <path class="cls-1" d="m619.27,10.44h-9.36V1.44h28.08v9h-9.36v34.2h-9.36V10.44Z"/>
      <path class="cls-1" d="m641.59,1.44h9.36v43.2h-9.36V1.44Z"/>
      <path class="cls-1" d="m679.17,0c6.77,0,12.46,2.95,16.63,7.7l-6.12,6.12c-2.81-2.88-6.34-4.75-10.51-4.75-7.7,0-13.83,5.98-13.83,13.68s5.11,14.26,13.83,14.26c4.18,0,7.71-1.87,10.51-4.75l6.12,6.12c-4.18,4.75-9.87,7.71-16.63,7.71-13.54,0-23.55-9.07-23.55-22.83,0-14.76,12.31-23.26,23.55-23.26Z"/>
      <path class="cls-1" d="m707.25,32.4c0,2.52,2.16,4.54,4.68,4.54,2.38,0,4.39-1.66,4.39-4.03,0-3.96-4.46-4.82-8.14-6.05-7.27-2.45-10.08-6.7-10.08-13.03,0-7.56,6.12-13.83,13.68-13.83s13.68,6.12,13.68,13.68h-9.15c0-2.52-2.02-4.54-4.54-4.54s-4.32,1.66-4.32,4.32c0,3.38,3.53,4.54,7.2,5.62,7.06,2.02,10.8,5.98,10.8,13.18,0,7.56-6.12,13.83-13.68,13.83s-13.68-6.12-13.68-13.68h9.14Z"/>
      <path class="cls-1" d="m765.72,0h1.22l19.87,44.64h-10.08l-2.02-4.54h-16.85l-1.94,4.54h-10.08L765.72,0Zm5.54,32.19l-4.9-11.52h-.14l-4.97,11.52h10.01Z"/>
      <path class="cls-1" d="m790.41,1.44h9.36l17.14,26.07h.14V1.44h9.36v43.2h-9.36l-17.14-26.07h-.14v26.07h-9.36V1.44Z"/>
      <path class="cls-1" d="m831.45,1.44h13.97c11.95,0,21.82,9.43,21.82,21.6,0,11.45-8.86,21.6-21.82,21.6h-13.97V1.44Zm13.75,33.99c6.7,0,12.31-4.9,12.31-12.38,0-6.91-5.04-12.39-12.31-12.39h-4.39v24.77h4.39Z"/>
      <path class="cls-1" d="m889.55,1.44h13.97c11.95,0,21.82,9.43,21.82,21.6,0,11.45-8.86,21.6-21.82,21.6h-13.97V1.44Zm13.75,33.99c6.7,0,12.31-4.9,12.31-12.38,0-6.91-5.04-12.39-12.31-12.39h-4.39v24.77h4.39Z"/>
      <path class="cls-1" d="m930.02,1.44h26.64v9h-17.28v8.28h15.91v9h-15.91v7.92h18v9h-27.36V1.44Z"/>
      <path class="cls-1" d="m969.91,32.4c0,2.52,2.16,4.54,4.68,4.54,2.38,0,4.39-1.66,4.39-4.03,0-3.96-4.46-4.82-8.14-6.05-7.27-2.45-10.08-6.7-10.08-13.03,0-7.56,6.12-13.83,13.68-13.83s13.68,6.12,13.68,13.68h-9.15c0-2.52-2.02-4.54-4.54-4.54s-4.32,1.66-4.32,4.32c0,3.38,3.53,4.54,7.2,5.62,7.06,2.02,10.8,5.98,10.8,13.18,0,7.56-6.12,13.83-13.68,13.83s-13.68-6.12-13.68-13.68h9.15Z"/>
      <path class="cls-1" d="m993.02,1.44h9.36v43.2h-9.36V1.44Z"/>
      <path class="cls-1" d="m1030.6,0c6.77,0,12.1,2.66,16.27,7.42l-6.12,6.12c-2.81-2.88-5.98-4.46-10.15-4.46-7.7,0-13.75,6.05-13.75,13.75s5.9,13.83,13.39,13.83,11.16-3.6,12.31-8.78h-12.82v-9h22.97v4.32c0,12.75-7.63,22.9-22.47,22.9-12.75,0-22.97-10.3-22.97-23.04,0-14.76,12.1-23.04,23.33-23.04Z"/>
      <path class="cls-1" d="m1057.82,1.44h9.36l17.14,26.07h.14V1.44h9.36v43.2h-9.36l-17.14-26.07h-.14v26.07h-9.36V1.44Z"/>
      <path class="cls-1" d="m1123.7,10.44h-9.36V1.44h28.08v9h-9.36v34.2h-9.36V10.44Z"/>
      <path class="cls-1" d="m1165.82,0c12.75,0,23.04,10.3,23.04,23.04s-10.3,23.04-23.04,23.04-23.04-10.3-23.04-23.04,10.3-23.04,23.04-23.04Zm0,36.65c7.49,0,13.61-6.12,13.61-13.61s-6.12-13.61-13.61-13.61-13.61,6.12-13.61,13.61,6.12,13.61,13.61,13.61Z"/>
      <path class="cls-1" d="m1233.64,0c6.77,0,12.46,2.95,16.63,7.7l-6.12,6.12c-2.81-2.88-6.34-4.75-10.51-4.75-7.7,0-13.83,5.98-13.83,13.68s5.11,14.26,13.83,14.26c4.18,0,7.71-1.87,10.51-4.75l6.12,6.12c-4.18,4.75-9.87,7.71-16.63,7.71-13.54,0-23.55-9.07-23.55-22.83,0-14.76,12.31-23.26,23.55-23.26Z"/>
      <path class="cls-1" d="m1253.51,1.44h16.92c8.07,0,14.26,5.54,14.26,13.61,0,6.19-3.96,11.23-10.15,12.96v.14l11.16,16.49h-11.09l-11.59-17.71h-.14v17.71h-9.36V1.44Zm17.64,17.79c2.52,0,4.32-1.51,4.32-4.18,0-2.3-2.02-4.18-4.32-4.18h-8.28v8.35h8.28Z"/>
      <path class="cls-1" d="m1288.72,1.44h26.64v9h-17.28v8.28h15.91v9h-15.91v7.92h18v9h-27.36V1.44Z"/>
      <path class="cls-1" d="m1338.11,0h1.22l19.87,44.64h-10.08l-2.02-4.54h-16.85l-1.94,4.54h-10.08l19.87-44.64Zm5.54,32.19l-4.9-11.52h-.14l-4.97,11.52h10.01Z"/>
      <path class="cls-1" d="m1364.25,10.44h-9.36V1.44h28.08v9h-9.36v34.2h-9.36V10.44Z"/>
      <path class="cls-1" d="m1386.57,1.44h26.64v9h-17.28v8.28h15.91v9h-15.91v7.92h18v9h-27.36V1.44Z"/>
      <path class="cls-1" d="m1458.35,0c6.77,0,12.46,2.95,16.63,7.7l-6.12,6.12c-2.81-2.88-6.34-4.75-10.51-4.75-7.7,0-13.83,5.98-13.83,13.68s5.11,14.26,13.83,14.26c4.18,0,7.71-1.87,10.51-4.75l6.12,6.12c-4.18,4.75-9.87,7.71-16.63,7.71-13.54,0-23.55-9.07-23.55-22.83,0-14.76,12.31-23.26,23.55-23.26Z"/>
      <path class="cls-1" d="m1498.74,0c12.75,0,23.04,10.3,23.04,23.04s-10.3,23.04-23.04,23.04-23.04-10.3-23.04-23.04,10.3-23.04,23.04-23.04Zm0,36.65c7.49,0,13.61-6.12,13.61-13.61s-6.12-13.61-13.61-13.61-13.61,6.12-13.61,13.61,6.12,13.61,13.61,13.61Z"/>
      <path class="cls-1" d="m1526.46,1.44h9.5l10.08,23.91,10.08-23.91h9.36v43.2h-9.36v-21.1l-9.58,22.54h-1.08l-9.65-22.83v21.39h-9.36V1.44Z"/>
      <path class="cls-1" d="m1570.53,1.44h16.49c8.21,0,13.46,6.26,13.46,13.47,0,8.06-6.05,13.46-13.46,13.46h-7.13v16.27h-9.36V1.44Zm15.99,17.79c2.52,0,4.32-1.51,4.32-4.18,0-2.3-2.02-4.18-4.32-4.18h-6.62v8.35h6.62Z"/>
      <path class="cls-1" d="m1605.16,1.44h26.64v9h-17.28v8.28h15.91v9h-15.91v7.92h18v9h-27.36V1.44Z"/>
      <path class="cls-1" d="m1636.12,1.44h9.36v34.2h18v9h-27.36V1.44Z"/>
      <path class="cls-1" d="m1667.08,1.44h9.36v34.2h18v9h-27.36V1.44Z"/>
      <path class="cls-1" d="m1698.04,1.44h9.36v43.2h-9.36V1.44Z"/>
      <path class="cls-1" d="m1712.43,1.44h9.36l17.14,26.07h.14V1.44h9.36v43.2h-9.36l-17.14-26.07h-.14v26.07h-9.36V1.44Z"/>
      <path class="cls-1" d="m1776.66,0c6.77,0,12.1,2.66,16.27,7.42l-6.12,6.12c-2.81-2.88-5.98-4.46-10.15-4.46-7.7,0-13.75,6.05-13.75,13.75s5.9,13.83,13.39,13.83,11.16-3.6,12.31-8.78h-12.82v-9h22.97v4.32c0,12.75-7.63,22.9-22.47,22.9-12.75,0-22.97-10.3-22.97-23.04,0-14.76,12.1-23.04,23.33-23.04Z"/>
      <path class="cls-1" d="m1838.51,0h1.22l19.87,44.64h-10.08l-2.02-4.54h-16.85l-1.94,4.54h-10.08l19.87-44.64Zm5.54,32.19l-4.9-11.52h-.14l-4.97,11.52h10.01Z"/>
      <path class="cls-1" d="m1863.2,1.44h16.92c8.07,0,14.26,5.54,14.26,13.61,0,6.19-3.96,11.23-10.15,12.96v.14l11.16,16.49h-11.09l-11.59-17.71h-.14v17.71h-9.36V1.44Zm17.64,17.79c2.52,0,4.32-1.51,4.32-4.18,0-2.3-2.02-4.18-4.32-4.18h-8.28v8.35h8.28Z"/>
      <path class="cls-1" d="m1905.61,10.44h-9.36V1.44h28.08v9h-9.36v34.2h-9.36V10.44Z"/>
    </g>
  </g>
</svg>