<?xml version="1.0" encoding="UTF-8"?>
<svg id="Layer_1" data-name="Layer 1" xmlns="http://www.w3.org/2000/svg" viewBox="0 0 1924.33 636.4">
  <defs>
    <style>
      .cls-1, .cls-2 {
        stroke-width: 0px;
      }

      .cls-2 {
        fill: #231f20;
      }
    </style>
  </defs>
  <g>
    <path class="cls-1" d="m822.96,305.65c-1.38.95-2.64,2.19-4.15,2.78-2.61,1-4.87,1.86-3.06,5.32.2.39.06,1.26-.26,1.56-2.79,2.67-5.29,6-8.62,7.63-2.32,1.13-2.91,1.99-2.76,4.15.21,3.23-.89,4.96-4.59,4.71-2.43-.16-4.92.53-7.39.84.11.71.05,1.08.21,1.24,1.16,1.19,2.37,2.33,3.56,3.49-1.63.09-3.27.33-4.89.26-4.67-.21-5.95.81-6.2,5.22-.26,4.63.93,5.89,5.73,6.25,1.62.12,3.22.47,4.83.71.03.41.07.81.1,1.22-2.02.39-4.05.78-6.43,1.24.52,4.23-3.22,5.56-5.98,7.75-1.33,1.05-2.29,2.58-3.42,3.89,1.38,1,2.75,2,4.12,3.01.32.24.61.52,1.3,1.12-.74.68-1.27,1.43-2,1.8-5.95,2.98-8.42,8.06-8.53,14.4-.07,4.23-.85,7.98-3.99,11.17-.97.99-1.08,3.06-1.15,4.65-.18,3.96-1.86,6.49-5.69,7.94-2.45.93-4.59,2.67-7.3,4.31.13-1.36.23-2.36.34-3.54-3.06-.65-6.93,2.39-9.55-2.14,2.57-1.54,5.08-3.25,7.8-4.53.71-.33,2.22.46,3.07,1.11,2.79,2.11,6.7,1.43,7.83-1.87.28-.82-1.27-2.5-2.31-3.41-.4-.35-1.72.33-4.04.87,4.48-5.74,4.12-11.35,4.28-17.07.07-2.74,3.14-5.33,4.52-8.14,1.07-2.18,2.12-4.56,2.3-6.92.24-3.12.15-5.94,4.14-6.54.36-.05.62-.77,1.27-1.62-1.36-.22-2.24-.33-3.1-.51-1.58-.33-3.15-.7-4.73-1.05.67-2.28,1.04-4.74,2.14-6.79.64-1.19,2.82-1.47,3.71-2.63,1.29-1.68,2.03-3.78,3.23-6.15-6.14-.22-7.5-1.39-8.26-6.63-.5-3.45-1.07-6.96-.91-10.41.14-2.93,1.27-5.82,2.22-9.82-5.06,2.63-9.62,5.01-14.18,7.39-.36-.54-.71-1.09-1.07-1.63.88-.66,1.81-1.27,2.63-2,1.51-1.34,3.45-2.5,4.33-4.19,1.53-2.92.46-6.67,3.24-9.51,1.06-1.08.51-3.87-2.4-4.24-1.03-.13-1.99-.85-3.06-1.34,3.45-3.9,6.32-4.28,10.31-2.02,1.88,1.06,4.2,1.3,6.16,2.25,2.61,1.27,5.05,2.87,7.58,4.32.9.52,1.77,1.24,2.75,1.46,5.46,1.21,5.91,2.44,2.72,6.88-1.69-.81-3.3-1.58-4.92-2.35.21,1.3.42,2.6.75,4.63-1.21.62-2.8,1.94-4.56,2.26-6.5,1.19-8.32,4.38-5.8,10.34,1.35,3.19,2.33,6.53,3.66,10.29.41-.63,1.47-1.57,1.29-2.1-1.25-3.67,1.09-3.89,3.5-3.65,4.55.45,7.61-3.62,9.41-8.39.51-1.34,1.38-2.62,2.34-3.7,1.11-1.24,2.46-2.3,3.79-3.31,6.01-4.58,6.13-5.44,1.1-11.64,1.22-.68,2.45-1.22,3.5-1.98,2.34-1.71,4.88-3.28,6.82-5.38,3.52-3.8,7.7-5.24,12.7-4.78v13.55Zm-10.14.92c-5.25-3.88-6.02-4.02-8.55-1.7,2.83,4.01,4.78,4.46,8.55,1.7Z"/>
    <path class="cls-1" d="m822.96,247.23c-2.33.51-4.67,1.02-7.88,1.72,1.81-4.07,4.85-5.01,7.88-5.95v4.23Z"/>
    <path class="cls-1" d="m555.14,19.24c2.05.41,3.69,1.23,5.1.93,10.59-2.22,21.13-4.67,30.12-6.69,2.97,1.88,4.93,3.12,6.89,4.36.39-1.69.79-3.38,1.37-5.89.43-.06,1.68-.22,2.93-.38-.13,1.73-.07,3.5-.43,5.19-.5,2.34-1.19,4.66-2.02,6.9-.79,2.1-1.88,4.09-2.83,6.14-.75,1.62-1.76,3.17-2.15,4.87-.56,2.43-.11,5.22-1.15,7.35-.67,1.38-3.23,2.56-4.93,2.55-3.1-.03-6.2-.93-9.27-1.64-.91-.21-1.7-.97-2.54-1.48.82-.77,1.55-2.07,2.48-2.23,7.06-1.21,8.15-3.63,4.04-9.46-.32-.46-.49-1.03-.87-1.44-.99-1.08-2.54-3.15-2.99-2.94-1.86.86-4.2,2.1-4.88,3.8-1.19,2.97-3.39,6.33-.38,9.65.13.14-.23.73-.57,1.72-2.46-1.1-4.8-2.13-7.09-3.16-1.61,1.69-3.34,3.47-5.02,5.28-3.2,3.45-3.2,6.42-.27,10.07.8,1,1.2,2.33,1.78,3.5-1.33.64-2.62,1.68-4.01,1.83-2.62.3-5.29.09-8.36.09.1-1.38.39-2.45.2-3.44-.44-2.33-1.27-3.85-4.3-2.67-4.42,1.74-8.49,4.15-13.47,4.94-2.7.43-4.77,4.72-7.15,7.24-1.73,1.82-3.46,3.64-5.29,5.36-2.03,1.92-4.17,3.73-6.96,6.2-.33-.68-1-2.07-1.67-3.45-.47.23-.94.47-1.41.7.33,1.6.32,3.39,1.06,4.78,1.6,2.97,1.38,5.8.48,8.87-.9,3.09-1.54,6.26-2.16,9.42-.57,2.95-2.33,4.09-5.23,4.52-2.68.4-5.27,1.49-7.88,2.32-1.72.55-3.4,1.67-5.12,1.72-9.77.27-12.31,4.57-14.18,12.02-.2.81-.63,1.58-.71,2.4-1.03,9.7-4.28,8.24-11.25,6.71-2.36-.52-5.35-.24-7.51.8-11.64,5.61-20.41,14.86-29.14,24.05-2.87,3.02-1.56,6.21,2.09,7.88,5.97,2.73,11.45,2.9,17.73.27,4.39-1.83,9.72-1.4,14.62-2.05.93-.12,1.89-.45,2.71-.93.7-.41,1.28-1.1,1.8-1.75,4.61-5.72,9.77-9.31,17.8-6.74,3.17,1.02,6.94.31,10.42.14,2.76-.13,4.15.71,4.36,3.7.3,4.1,3.17,6.83,7.35,7.28,3.92.41,7.85.68,11.79.87,4.64.22,5.73,1.2,5.87,5.81.04,1.41-.07,2.82-.09,4.23-.04,2.37-.31,4.44-3.35,4.93-.74.12-1.88,1.59-1.77,2.26.14.84,1.49,2.2,2.13,2.1,2.08-.33,4.65-.69,5.91-2.07,1.05-1.15,1.35-4.21.55-5.61-2.42-4.24-1.92-7.52,1.3-11.06,2.14-2.34,2.36-5.49-.7-7.28-4.24-2.47-9.22-3.91-9.6-10.56-.46.2-.92.4-1.38.6-1.3,1.57-2.33,3.53-3.96,4.59-1.81,1.17-4.25,2.27-6.26,2.05-3.39-.37-4.21-3.48-1.66-5.84,1.98-1.83,3.39-3.47,4.16-6.34,1.24-4.6,12.58-8.1,17.02-5.5,2.43,1.43,4.58,1.46,6.66.21,10.07-6.08,21.77-6.7,32.67-9.99,1.34-.4,2.92-.47,3.98-1.25,7.3-5.33,14.1-1.79,20.99.93,3.37,1.34,6.76,2.61,10.14,3.93,5.32,2.07,10.67,4.07,15.93,6.28,1.2.51,2.47,1.57,3.05,2.72,3.66,7.17,5.73,8.36,13.3,7.02,2.74-.48,5.47-1.09,8.19-1.68.52-.11,1.21-.32,1.45-.71,3.24-5.24,8.95-5.86,14.36-7.97.19,1.03.42,1.77.44,2.52.15,5.57,1.07,6.35,6.41,7.29,1.66.29,4.23,1.99,4.38,3.28,1.09,9.11,5.73,16.79,11.61,22.89,6.38,6.62,6.89,13.45,5.16,21.25-1.13,5.11-.29,8.95,4.23,12.09,4.09,2.84,4.26,6.41.55,9.95-5.04,4.8-5.89,10.32-4.69,16.94.75,4.14,2.91,5.5,7.05,5.6-4.01,1.82-7.45,3.24-10.74,4.96-1.12.59-2.06,1.81-2.69,2.96-1.79,3.25-3.43,6.58-5.03,9.93-1.01,2.11-2.42,4.23-2.68,6.46-1.49,12.95-2.93,25.93-7.14,38.32-.78,2.31-3.7,4.87-6.09,5.47-6.76,1.7-13.74,2.64-20.69,3.46-3,.35-6.19-.02-9.19-.6-6.13-1.19-11.33,1.29-15.67,4.71-5.48,4.32-11.04,3.88-17.1,2.69-7.28-1.43-14.56-3.16-21.92-3.8-4.47-.38-9.11.94-13.64,1.74-2.87.5-5.68,1.39-8.49,2.21-1.03.3-2.06.79-2.93,1.42-5.17,3.78-10.26,7.66-15.44,11.42-.55.4-1.45.32-2.57.54.62-3.13,1.16-5.84,1.92-9.65-4.87,2.69-8.57,4.98-12.51,6.77-1.28.58-3.16-.24-4.77-.28-2.27-.06-4.55.02-6.82,0-1.12-.02-2.29,0-3.35-.29-2.03-.55-4-1.32-5.77-1.92-.55,2.3-.44,4.3-1.39,5.23-1.42,1.39-3.58,2.26-4.08-1.23-.39-2.7-2.12-3.51-4.59-2.59-2.69,1-5.28,2.34-8.02,3.16-1.64.49-3.49.24-5.24.41-4.38.42-8.77.88-13.15,1.34-1.76.18-3.65.89-5.26.48-4.46-1.15-8.19-.62-11.62,2.73-3.1,3.03-5.45,2.9-8.24-.45-2.67-3.21-5.43-4.7-9.83-3.79-4.23.88-8.72.44-13.01,1.13-2.79.45-5.63,1.54-8.08,2.96-3.01,1.76-5.73,2.62-9.44,2.29-9.04-.8-17.35.86-24.36,7.84-5.95,5.92-13.05,10.68-19.58,16.02-2.56,2.09-4.96,4.38-7.37,6.54-.74-2.24-1.56-4.03-1.87-5.9-.23-1.39-.3-3.41.49-4.21,1.09-1.08,3.03-1.48,4.68-1.78,2-.36,4.13-.07,6.09-.54.76-.18,1.61-1.64,1.66-2.57.04-.62-1.15-1.71-1.96-1.92-6.38-1.61-12.71-2.5-17.21,4.62-1.1,1.74-3.9,2.35-5.82,3.62-1.45.96-2.97,1.98-4.05,3.3-2.61,3.19-4.74,6.79-7.49,9.84-8.18,9.08-17.94,16.88-22.87,28.55-3.01,7.13,3.34,17.37,11.05,18,2.89.24,4.8-.87,6.1-3.48,4.31-8.61,8.71-17.18,13.11-25.74.48-.93,1.18-1.73,1.78-2.6.36.14.72.27,1.08.41-.38,1.25-.68,2.53-1.15,3.75-1.96,5.07-4.15,10.07-5.91,15.2-1.27,3.7.05,6.77,3.83,8.13,3.14,1.13,4.46,2.94,4.18,6.31-.51,6.01-.14,11.85,4.51,16.53.62.63,1.25,2,.98,2.65-1.71,4.1,1.09,6.61,2.99,9.49.85,1.29,1.81,2.57,2.31,4,1.79,5.13,3.9,6.13,9.08,4.87,3.86-.94,8.06-.68,11.76-1.96,3.3-1.13,6.55-3.2,9.04-5.64,3.06-3.01,5.81-5.31,10.24-3.18.24.11.59.16.83.08,8.11-2.71,16.46,1.49,24.57-.82,4.74-1.35,10.18-1.75,14.02-4.43,5.21-3.64,9.25-8.72,15.52-11.33,2.83-1.18,1.8-7.08-.84-10.05-.63-.71-1.06-1.87-1-2.79.03-.39,1.58-.98,2.41-.95,4.57.18,5.37-.81,4.54-6.24-.9,0-1.85-.04-2.78.01-.78.04-1.55.19-3.29-.57,3.07-4.59,6.03-9.26,9.24-13.75,2.75-3.85,6.08-7.3,8.59-11.28,2.11-3.36-1.46-7.2-6.76-7.65-1.26-.11-2.56.03-3.8-.17-1.77-.28-3.5-.78-5.57-1.26.37-3.49.9-6.89,1-10.31.03-1.08-1.08-2.19-1.99-3.9,1.76-1.42,3.84-3.22,6.05-4.85,4.24-3.13,8.49-6.25,12.87-9.18,1.36-.91,3.15-1.18,4.75-1.74.15,1.82.86,3.84.3,5.41-.76,2.15-2.44,4-3.8,5.92-.85,1.19-1.85,2.28-3.24,3.96,3.04.88,5.36,1.56,8.58,2.5.26-2.71.66-5.39.73-8.07.22-7.98,4.43-12.72,12.21-14.55,3.6-.85,6.94-2.83,10.97-4.54.29.67,1.07,1.66,1.09,2.68.1,3.84,3.6,6.73,7.21,5.11,2.71-1.22,3.67.1,5.7,1.26,3.12,1.8,6.97,2.88,10.58,3.15,4.36.32,8.25.63,11.47,4.15.72.78,3.48.23,5.04-.39,4.12-1.63,4.9-1.46,4.58,2.89-.23,3.06-1.59,6.05-2.5,9.04-.49,1.62-2.06,3.99-1.51,4.64,1.4,1.65,3.76,3.57,5.66,3.49,3.73-.16,6.76-.47,8.24,3.92.26.76,2.33.9,4.15,1.54-.54-2.81-.94-4.87-1.33-6.93,1.95.12,3.91.25,6.62.42-.78-4.01-1.39-7.96-2.43-11.79-.23-.84-1.91-1.41-3.01-1.87-1.67-.69-3.61-.9-5.09-1.84-1.27-.81-3.12-2.78-2.84-3.5.65-1.65,2.23-3.5,3.84-4.02,1.08-.35,3.11,1.2,4.25,2.36,1.84,1.88,3.47,4.03,4.87,6.26.82,1.32,1.25,3,1.46,4.57.59,4.47,2.54,5.98,6.86,4.74,2.41-.69,4.68-1.83,7.04-2.7,3.35-1.24,4.74-.26,4.72,3.27-.04,6.23,1.37,7.09,6.83,3.96,3.17-1.81,6.34-3.68,9.25-5.87,1.41-1.06,2.23-2.9,3.98-5.29-4.58-.23-7.96-.4-11.35-.57l-.67-1.52c1.87-1.23,3.59-2.9,5.64-3.6,3.24-1.11,7.17-.15,9.1-4.52.84-1.9,12.06-2.21,14.09-.82,2.18,1.5,3.49,1.33,4.24-1.48.44-1.64,1.42-3.14,2.44-5.31-.24-.4-1.18-1.36-1.43-2.47-.51-2.23-.4-4.24,2.83-4.32,5.94-.14,11.91-.13,17.79-.81,7.04-.82,14.01-2.3,21.39-3.56.4.37,1.31,1.11,2.09,1.97.72.79,1.29,1.7,1.93,2.56-1.03.71-2.01,1.88-3.12,2.03-1.26.17-2.64-.6-3.99-.89-1.43-.31-2.88-.55-4.04-.77-.28,5.23-.7,9.99-.65,14.75,0,.9,1.8,1.91,2.92,2.64,2,1.29,4.16,2.34,6.16,3.62,1.28.82,2.3,2.09,3.64,2.77,2.72,1.38,5.5,2.72,8.39,3.63,1.59.5,3.46.09,6.01.09-1.39-1.69-2.26-2.76-3.28-4,4.66-1.54,9.03-2.97,13.4-4.43.88-.3,2.29-.52,2.49-1.1,2.03-6.04,7.15-5.89,12.12-6.57,6.64-.91,13.2-2.38,19.8-3.53,1.93-.34,3.91-.37,5.85-.61,2.69-.33,5.38-.73,8.03-1.1.51.62,1.1,2.02,2.08,2.38,3.1,1.17,3.61,2.83,1.7,5.42-1.41,1.92-1.4,2.82.78,4.92,2.51,2.41,3.2,6.74,4.64,10.25.09.21-.03.61-.19.79-3.05,3.47-6.25,6.81-9.15,10.4-3.47,4.29-7.38,8.46-9.71,13.34-1.26,2.64.35,6.65.57,9-1.01,3.07-3.07,6.03-2.31,7.73,1.62,3.6,2.52,8.29,7.34,9.65,1.48.42,2.93.91,4.8,1.5-3.44,2.02-6.13,3.61-8.83,5.18-2.28,1.32-4.12,2.76-3.77,5.93.1.85-1.25,1.98-2.11,2.8-2.33,2.2-4.75,4.3-7.36,6.64-1.24-1.49-2.26-2.72-2.93-3.53-1.21,5.01-2,9.95-3.73,14.54-.59,1.57-3.49,2.33-5.4,3.33-2.8,1.48-5.04,2.87-4.87,6.89.14,3.32-1.43,6.26-6.07,5.43-3.1-.55-5.84,2.55-5.35,6.84.51,4.48-.9,6.58-5.09,7.92-3.88,1.24-3.68,5.22-4.4,8.47-.43,1.93-1.06,3.82-1.84,6.59-4.59-4.72-8.53-5.46-12.54-.85-.32.37-2.31-.66-3.49-1.11-1.49-.57-3.04-1.87-4.4-1.69-4.41.6-8.92,1.3-13.04,2.87-1.9.72-3.97,3.42-4.26,5.46-.8,5.54-3.7,8.96-9.4,9.57-1.95.21-3.9.46-5.81.91-3.04.72-4.69,2.76-5.41,5.8-.57,2.39-1.64,4.02-4.81,3.06-2.02-.61-4.45,0-4.42,2.91.01.93,1.39,2.69,2,2.63,2.49-.24,4.93-1.05,8.14-1.82-.38,1.26-.47,2.84-.95,2.96-3.84,1.01-7.78,2.53-11.63,2.39-5.09-.18-10.1-2.13-15.2-2.56-4.26-.36-6.36-2.32-7.33-6.18,3.16.22,6.27.44,10.85.76-1.22-2.96-1.57-6.03-3.12-6.88-1.39-.76-4.62.35-6.15,1.67-2.6,2.24-4.03,1.3-5.41-.9-2.68-4.27-1.29-8.31,1.53-12.63-6.21-1.98-11.98-3.95-17.85-5.59-1.48-.41-3.77-.34-4.83.55-3.69,3.07-7.9,1.68-11.14.57-6.6-2.26-12.83-2.48-19.19-.03-5.44,2.09-10.85,4.31-16.15,6.73-3.67,1.67-5.27,4.88-5.27,8.88,0,6.99-1.66,13.29-7.43,17.93-.51.41-.51,1.43-.75,2.17.87.11,2.01.62,2.57.25,2.68-1.76,5.06-3.98,7.8-5.62,6.07-3.65,18.01,2.31,18.76,9.32.09.86-.7,2.18-1.47,2.72-3,2.09-6.07,4.11-9.3,5.81-1.01.53-2.69.21-3.91-.19-4.51-1.48-8.88-2.72-13.16.76-.74.6-2.32.5-3.42.26-4.56-.99-8.79-2.13-13.76-.58-5.15,1.6-10.85,1.56-16.33,1.85-1.48.08-3.03-1.25-4.87-2.07-2,2.54-3.8,1.36-6.01-.53-1.4-1.19-3.7-1.27-5.49-2.09-1.47-.67-3.17-1.39-4.09-2.61-1.95-2.57-4.21-3.51-6.05-.69-2.9,4.45-7.04,4.23-10.82,2.94-5.49-1.88-10.74-4.6-15.88-7.35-2.85-1.53-4.88-4.09-3.25-7.71,1.49-3.3,6.82-5.46,10.21-4.46.76.22,2.13.17,2.44-.29.38-.56.1-1.72-.17-2.54-1.39-4.28-7.96-5.39-12.08-4.11-4.59,1.42-8.14.75-12.24-1.74-2.44-1.49-6.21-.85-9.38-1.07-.66-.05-1.34.48-2.03.54-11.46.92-22.93,1.78-34.39,2.76-1.35.12-2.63.92-3.95,1.4,1.17,1.05,2.22,2.29,3.54,3.09,1.53.93,3.31,1.46,4.97,2.16-1.07,2.14-1.85,4.51-3.3,6.35-1.32,1.68-3.37,3.9-5.1,3.91-4.14.02-8.31-.98-12.4-1.9-.76-.17-1.36-1.82-1.68-2.89-.33-1.1-.22-2.34-.68-4.07-3.6,7.16-8.31,4.06-13.05,2.41-3.78-1.31-8.03-1.46-9.91-6.04-.28-.69-2.41-.75-3.7-.85-2.45-.2-5.06.26-7.34-.42-7.38-2.2-14.62-4.83-21.95-7.19-1.17-.38-2.69.09-3.72-.45-1.25-.66-2.86-1.83-3.1-3.02-.82-4.18-2.9-5.96-6.43-3.76-5.74,3.58-11.99.64-17.93,2.3-3.82,1.07-6.65-2.69-6.17-6.99.51-4.48-1.65-5.98-5.34-8.09-7.55-4.3-14.39-9.86-22.56-15.63,3.53-1.29,6.19-1.96,8.52-3.25,1.03-.57,2.2-2.63,1.9-3.58-1.24-3.94-2.41-8.26-7.89-8.43-.8-.02-1.87-.31-2.32-.88-5.6-7.06-13.68-3.57-20.62-4.87-.58-.11-1.72.58-1.88,1.11-.17.56.42,1.47.89,2.06.31.4.96.54,1.49.75,3.39,1.31,4.92,3.73,4,7.29-.53,2.05-5.88,3.5-8.62,2.27-10.96-4.89-20.44-11.37-24.03-23.69-.43-1.47-.56-3.48.11-4.74,2.19-4.1,4.69-8.06,7.37-11.86.68-.97,2.54-1.77,3.71-1.61,4.87.68,9.68,1.74,14.52,2.68,2.83.55,5.66,1.12,9.57,1.9-.48-3.06-.1-5.73-1.26-7.1-4.53-5.36-9.55-10.31-14.72-15.77-.48.77-.72,1.63-1.09,1.69-6.57,1.09-13.14,2.21-19.75,2.95-.73.08-2.44-2.03-2.44-3.12.01-3.81-2.03-5.67-5.26-6.7-10.32-3.28-19.64-7.99-27.07-16.3-4.66-5.21-10.59-9.28-15.39-14.37-2.9-3.07-4.86-7.07-7.02-10.78-2.4-4.11-.9-8.22.7-12.13,2.01-4.9-2.65-3.25-4.4-4.7v-5.74c1.91.92,3.45,1.96,5.14,2.42,2.79.76,5.69,1.57,8.54,1.55,2.35-.02,4.55-1.61,3.57-4.51-2.17-6.46-2.78-13.61-7.87-18.85-1.13-1.16-2.39-2.19-3.59-3.28-.31-.28-.83-.47-.94-.8-1.69-5.03-4.02-9.97-4.8-15.14-.83-5.5-.19-11.22-.19-17.05,3.61.52,5.03,2.8,6.46,5.54,1.2,2.3,3.06,4.43,5.09,6.07,5.01,4.06,10.37,7.69,15.39,11.73.93.75.94,2.65,1.37,4.02-1.17.06-2.34.16-3.52.18-1.48.03-2.97,0-3.36,0-2.34-2.66-4.22-4.91-6.22-7.05-1.82-1.95-3.67-3.92-5.72-5.61-.81-.67-2.21-.63-3.34-.91-.25,1.04-1.03,2.32-.67,3.08,2.46,5.32,3.62,11.57,10.93,13.21,4.46,1,5.51,3.68,3.22,7.61-2.29,3.93-1.12,6.6,1.82,9.2,2.22,1.96,4.46,3.9,6.64,5.9,2.09,1.91,3.94,1.52,5.2-.77,2.23-4.04,4.93-3.46,8.47-1.74,2.81,1.36,6.07,2.41,9.14,2.46,7.62.14,15.07-1.13,21.92-4.87,3.82-2.08,7.66-4.17,11.65-5.87,3.68-1.57,3.37-3.5,1.32-6.13-1.45-1.85-2.76-3.82-3.61-6.33,10.78,5.01,20.69,11.68,32.9,10.41.43.77.78,1.12.8,1.48.48,7.26,2.6,8.68,9.21,5.99.96-.39,1.94-1.21,2.46-2.09,1.87-3.2,3.65-6.45,5.25-9.79,1.42-2.95,3.34-2.87,5.31-.95,2.49,2.44,4.57,2.53,7.29.24,1.01-.85,3.06-.46,4.65-.6,1.87-.16,3.75-.28,5.62-.42l.02-1.56c-1.54-.38-3.1-1.17-4.61-1.08-5.24.33-10.53-1.69-15.78.87-2.53,1.23-9.38-3.04-10.04-5.72-.17-.67.09-1.85.58-2.21,3.14-2.33,2.07-5.65,1.93-8.59-.05-.99-1.64-2.59-2.71-2.75-10.52-1.59-20.22-5.06-28.83-11.44-1.05-.78-2.61-.83-3.84-1.4-1.74-.81-3.41-1.8-5.1-2.71.16-.31.32-.62.48-.92.89.27,1.79.53,2.67.82,3.48,1.15,5.6-.47,5.17-3.96-.62-5.04-.34-5.38,4.69-3.91,2.61.76,5.06,2.11,7.61,3.1,1.02.4,2.16.9,3.19.78,4.44-.49,8.88-1.78,13.28-1.65,3.78.12,7.52,1.74,11.27,2.76,9.94,2.71,19.83,5.57,29.81,8.11,3.36.86,6.92,1.05,10.4,1.32,5.32.4,9.39,3.11,13.53,6.2,2.56,1.91,5.9,2.79,8.94,4.02,2.57,1.04,6.04,1.18,7.67,3.01,5.28,5.88,11.52,4.07,17.2,2.32,5.69-1.76,10.99-5,16.16-8.1,1.19-.71,2.09-3.93,1.49-5.25-2.56-5.68-4.83-11.75-11.77-14.04-1.32-.44-2.93-3.17-2.64-4.44.29-1.28,2.67-2.62,4.33-2.94,2.63-.5,4.14-1.21,4.97-4.13,1.05-3.7,7.36-4.77,10.4-2.23.84.7,1.84,1.24,2.83,1.71,3.79,1.78,7.38,3.34,9.06,7.97,1.58,4.35,6.23,5.82,11.49,4.56,7.64-1.83,15.22-3.92,22.87-5.74,2.03-.48,4.2-.35,6.3-.53,4.34-.37,7.96-.29,8.47,5.69.38,4.39,4.68,4.17,7.72,3.85,3.11-.32,6.06-1.93,9.13-2.83,2.51-.73,5.51-2.39,7.55-1.63,5.68,2.11,11.02.83,16.48-.11,4.56-.78,9.12-1.57,13.62-2.6,2.83-.65,3.2-1.49,3.18-5.09-3.49-.25-7-.5-10.52-.76l.04-1.34c9.59-1.18,18.94-5.42,28.96-1.07,2.73,1.18,5.99,1.38,9.03,1.56,7.16.42,14.39,1.17,21.5.65,8.13-.59,17.16,1.31,23.58-6.2,1.26-1.48,2.66-2.83,4.4-4.67,1.37.89,3,1.85,4.54,2.95,4.89,3.51,8.13,3.59,13.16.4,4.68-2.96,10.37-4.41,13.6-9.59.53-.84,2.83-.69,4.33-.79,3.34-.22,6.73-.05,10.03-.51,5.24-.72,7.89-4.08,9.08-9.17.38-1.61,2.48-4.05,3.75-4.03,6.21.11,8.74-3.79,12.05-8.19,4.84-6.42,4.26-12.96,2.37-19.55-.87-3.03-4.06-5.4-6.25-8.04-.34-.41-1.06-.51-1.4-.92-6.78-8.2-15.95-9.78-25.89-9.72-5.41.03-10.07,1.34-13.42,5.74-3.24,4.26-7.45,5.86-12.62,5.11-5.13-.74-9.45-.11-12.12,5.18-.91,1.8-2.82,3.12-4.35,4.58-4.73,4.55-5.82,4.56-10.84.17-3.47-3.04-7.37-1.89-9.14,2.23-.6,1.4-3.29,3.31-4.08,2.94-2.06-.96-3.59-3.04-5.34-4.67,1.2-1.13,2.24-2.52,3.63-3.32,1.42-.83,3.2-1.02,4.77-1.62,2.89-1.09,4.81-3.17,4.52-6.31-.19-2.13-4.8-3.29-7.81-2.18-2.64.97-5.38,1.81-7.8,3.18-.83.47-1.18,2.39-1.16,3.64.05,3.33.46,6.68-4.3,6.98-.12,0-.29.12-.34.23-3.02,6.2-7.47,3.43-11.93,2.13-3.99-1.17-11.49,2.33-13.78,5.8-1.36,2.07-1.12,4.08.94,5,2.46,1.1,5.28,1.98,7.92,1.93,5.78-.11,11.45,6.37,9.61,11.93-.52,1.56-2.38,3.26-3.98,3.76-3.54,1.1-7.2,1.98-10.8-.78-.95-.73-3.68.01-5.08.89-5.65,3.52-5.92,3.64-10.45-1.4-3.88-4.33-5.58-9.32-4.42-15.17.81-4.08-1.35-7.14-5.55-7.11-3.52.03-7.02,1.02-10.87,2.36,5.4,1.38,2.87,9.34,9.18,9.77,1.36.09,2.78,1.8,3.85,3.04,1.23,1.42,1.3,2.99-1.1,3.28-3.87.45-6.91,1.76-9.76,4.86-3.3,3.59-4.81-.61-6.58-3.19-4.72,1.8-9.36,3.62-14.04,5.33-5.02,1.83-8.43-.45-10.85-5.47-1.31-2.72-2.72-4.84-1.59-7.94.11-.3-2.51-2.37-3.28-2.08-3.93,1.5-7.54.65-11.02-.94-3.01-1.38-4.68-.45-6.13,2.23-2.51,4.64-7.26,7.16-11.82,6.29-2.54-.48-4.2-1.34-3.55-4.86.59-3.2-.29-6.67-.6-10.01-.05-.49-.47-1.16-.9-1.36-3.65-1.69-7.21-3.94-11.07-4.79-6.4-1.4-13.87,3.85-15.11,9.98-.15.75.67,1.67,1,2.53,1.01,2.68,2.01,5.38,3.01,8.07-.65.36-1.3.72-1.94,1.08-1.02-1.22-2.14-2.38-3.04-3.68-1.33-1.93-9.07-3.14-10.37-1.28-.62.88-.44,2.65-.05,3.83.55,1.67,1.63,3.17,2.78,5.28,1.49-.16,3.43-.22,5.29-.62,2.71-.58,3.82,1.03,2.89,2.93-1.76,3.59,0,4.81,2.8,6.03.81.35,1.33,1.39,1.21,1.26-2.35,2.35-4.08,4.29-6.03,5.97-1.79,1.54-3.66,3.52-5.78,3.98-1.71.37-4.64-.68-5.64-2.09-3.05-4.29-.93-9.55,3.96-11.18.2-.07.31-.43,1.18-1.75-2.85.14-5.06-.09-7.07.43-3.22.85-5.74.12-8.14-2.04-6.24-5.61-7.48-5.52-13.57.48-.98.96-2.11,1.77-3.17,2.65.13.36.26.72.39,1.08.94,0,1.92-.15,2.83.03,3.9.77,7.95,1.19,11.6,2.61,3.01,1.17,3.69,4.42,2.25,7.22-1.55,3.02-3.96,1.39-6.17.38-1.64-.74-3.55-1.73-5.15-1.46-1.56.26-3.43,1.68-4.17,3.11-.97,1.87-.25,3.83,2.23,4.56,1.33.39,2.67.89,3.89,1.56,5.05,2.78,5.16,6.08.21,9.02-.85.5-2.61.57-3.3.03-3.75-2.93-7.52-5.91-10.87-9.27-5.34-5.37-11.46-9.13-19.03-9.9-2.2-.22-4.52,1.15-6.83,1.5-2.92.45-6,1.23-8.81.74-4.69-.83-8.8-2.11-12.14,3.13-2.06,3.24-7.49,2.12-9-1.45-1.03-2.43-.92-4.37,2.36-5.42,3-.96,5.72-2.81,8.45-4.22-4.01-6.84-7.75-12.42-10.58-18.42-1.27-2.69-.57-6.25-1.02-9.38-1.21-8.4-1.26-8.49,7.22-7.79,4.31.36,8.58,1.35,12.89,1.6,3.81.22,7.88-3.04,8.77-6.64.24-.94-.04-2.26-.59-3.05-.28-.4-1.75-.22-2.58.04-3.2,1.03-6.38,2.13-9.51,3.35-3.81,1.49-6.28,0-6.54-4.09-.06-.98.06-1.98-.03-2.96-.25-2.77-2.36-3.84-4.69-2.28-1.15.77-1.94,2.14-3.13,2.79-1.21.66-2.94,1.35-4.04.94-.84-.31-1.75-2.56-1.4-3.49.49-1.29,1.96-2.56,3.3-3.08,2.05-.79,4.33-1.01,6.54-1.33,4.8-.7,6.49-4,6.8-8.25.22-3,.82-5.45,3.98-6.77.91-.38,1.58-1.8,1.98-2.89,1.7-4.58,4.66-6.62,9.42-6.29,3.4.23,8.42-2.86,9.07-6.17.84-4.29,3.44-3.81,5.84-2.2,4.25,2.86,8.57,5.84,12.1,9.5,2.46,2.55,4.85,2.82,7.48,1.83,6.68-2.5,13.42-5,19.75-8.25,2.94-1.51,4.89-4.87,7.47-7.2,2.11-1.92,4.4-3.67,6.75-5.29,2.5-1.73,5.18-3.22,7.76-4.83,1.77-1.11,3.39-2.64,5.31-3.32,9.53-3.38,16.02-9.94,21.12-18.46,1.99-3.32,5.4-5.79,8.13-8.68,1.05-1.11,2.74-2.23,2.87-3.48.67-6.31,5.75-9.87,9.16-14.19,2.44-3.09,7.47-4.05,11.17-6.24,4.19-2.48,8.33-5.08,12.25-7.96,6.79-5,13.42-10.21,20.05-15.43,1.98-1.56,3.92-3.28,5.51-5.23,5-6.13,11.72-6.8,18.79-5.94,1.07.13,2.2,2.21,2.66,3.6.18.55-1.55,2.53-2.12,2.42-6.81-1.35-10.06,4.72-14.97,7.16-3.32,1.64-5.5,5.6-8.82,7.21-5.56,2.7-8.25,5.75-7.38,12.52.37,2.85-1.14,7.39-5.15,9.54-.77.41-.11,3.5-.11,5.68q-9.97,6.49-16.68-1.05c-1.38,1.86-3.13,3.55-3.99,5.62-.6,1.44-.64,3.92.23,5.01,2.43,3.04,5.36,5.72,8.34,8.26.86.73,2.8,1.03,3.76.55.69-.34.59-2.3.95-4.03,1.41.11,3.31.19,5.2.41,7.23.86,11.05-1.48,13.54-8.35,1.78-4.92,5.13-7.3,10.55-7.35,4.06-.04,7.3-1.12,9.37-5.1.8-1.54,2.73-3.07,4.42-3.47,7-1.65,11.6-6.7,16.59-11.13,5.5-4.89,10.57-10.26,16.1-15.11,1.68-1.47,4.3-1.85,6.44-2.85,8.61-4.01,17.28-7.9,25.73-12.21,3.05-1.56,5.46-4.34,8.37-6.24,2.03-1.33,4.33-2.42,6.66-3.07,4.84-1.34,7.97-3.29,8.67-9.17.53-4.46,3.54-8.62,5.27-12.52Zm-250.75,187.29c4.86-.64,9.45-.5,13.12,3.56.7.77,2.35.76,3.59.94,4.71.68,8.95-.77,12.79-3.28,1.31-.86,3.1-2.63,2.93-3.71-.22-1.39-2.19-2.5-4.11-4.43-.27,2.04-.23,2.77-.48,3.38-.34.84-1.12,2.32-1.31,2.26-1.55-.48-3.18-1.05-4.42-2.05-.58-.47-.77-2.15-.41-2.94,1.26-2.76,9.93-3.21,11.8-.82.58.74,1.57,1.15,2.37,1.71.53-.76,1.64-1.73,1.45-2.23-.36-.97-1.36-1.79-2.24-2.47-.7-.54-2.07-.58-2.39-1.22-1.93-3.79-3.64-7.7-5.82-12.42-5.02,4.31-9.71,8.37-14.45,12.38-.38.32-1.1.49-1.58.38-2.6-.62-4.35-.04-5.05,2.83-.13.54-1.2.93-1.9,1.24-3.99,1.76-7.35.52-10.85-2.29-.1,1.67.15,3.11.99,3.97,1.86,1.91,4.02,3.54,6.06,5.28-1.04.36-2.36.45-3.06,1.16-.95.96-2.19,2.64-1.89,3.55.33,1,2.21,1.88,3.51,2.04.96.12,3-1.1,2.95-1.55-.2-1.79-1.02-3.51-1.61-5.26Zm-101.79,132.21c1.52.31,2.02.42,2.52.51,1.32.22,2.65.43,3.98.64.23-1.79,1.33-4.48.56-5.23-4.57-4.43-9.11-9.9-16.38-8.73-9.09,1.46-18.07,3.66-27.04,5.77-1.09.26-2.49,1.88-2.64,3.02-.65,5.01,2.36,9.64,6.67,10.92,4.59,1.35,12.79-1.31,14.69-4.77,3.07-5.59,6.1-5.96,10.75-1.84,2.4,2.12,5.43,3.54,8.17,5.27.24-.38.47-.77.71-1.15-.54-1.18-1.07-2.37-1.99-4.39Zm245.23-144.76l.23,1.41c3.76-.69,7.52-1.37,11.27-2.09,1.36-.26,2.86-1.14,4.02-.8,6.82,2,13.02-.05,19.2-2.5,3.59-1.42,4.2-3.63,1.81-7.45-5.93,3.61-11.54,4.24-15.7-2.75-.27-.45-.87-.69-1.33-1.02-3.74-2.67-3.52-4.37.72-6.41,2.01-.97,4.16-1.86,5.8-3.3.74-.65.39-2.55.54-3.89-2.97-.06-6.84-1.33-8.74.06-4.58,3.37-8.72,7.79-7.94,14.39.5,4.25-.94,7.88-3.72,10.77-1.58,1.65-4.08,2.41-6.17,3.57Zm-284.66,178.97c-.84-1.28-1.09-2-1.6-2.38-7.56-5.82-15.08-11.72-22.84-17.28-1.25-.89-3.64-.21-5.5-.2-1.06,0-2.35.53-3.1.09-.5-.3-.47-1.94-.27-2.89,1.01-4.83-1.18-7.03-5.93-5.67-1.45.41-2.76,1.35-4.08,2.12-2.59,1.52-2.94,3.42-.43,5.24,12.16,8.86,24.66,17.12,39.42,21.12,1.15.31,2.48-.07,4.33-.15Zm-34.08,2.15c1.51-.69,3.98-1.18,4.11-2.02.23-1.54-.49-3.68-1.58-4.86-4.84-5.27-9.73-10.55-15.1-15.25-1.74-1.52-5.01-1.3-7.58-1.88-.08,2.75-.18,5.5-.19,8.25,0,.34.41.73.71,1.01,4.37,4.16,8.6,8.48,13.2,12.37,1.57,1.33,4.07,1.55,6.43,2.38Zm378.83,62.43c.16-12.61-4.75-19.96-16.23-24.58-.49-.2-.87-.63-1.32-.92-1.03-.66-2.07-1.3-3.11-1.95-.56,1.35-1.44,2.66-1.6,4.05-.34,3.09,1.62,4.67,4.17,6.1,8.36,4.69,14.41,11.01,13.83,21.51-.05.98-.54,2.18-.15,2.9.7,1.28,1.92,2.27,2.92,3.38.68-1.11,1.86-2.19,1.94-3.34.16-2.36-.26-4.76-.45-7.15Zm-148.74-122.65c2.51-1.11,5.12-1.73,7.05-3.22,4.94-3.81,10.16-6.34,16.56-6.15,1.94.06,4.58-.37,3.82-3.07-.42-1.51-2.79-3.63-4.12-3.52-5.67.47-11.48,1.04-16.86,2.75-6.89,2.19-7.84,4.75-6.45,13.21Zm195.96,78.67c-4.37-.11-8.36,2.89-8.52,6.4-.18,3.95,4.35,8.24,8.89,8.42,5.04.19,8.29-2.59,8.42-7.2.14-5.08-2.61-7.47-8.79-7.62Zm-292.18-88.3c-2.72-4.87-6.37-6.64-10.28-8.1-3-1.12-6.08-2.08-8.93-3.5-3.06-1.52-5.99-1.9-9.25-.84-3.16,1.02-4.28,3.97-1.84,6.24,1.17,1.08,3.2,1.59,4.89,1.69,3.99.24,7.71.03,11.67,2.14,3.63,1.93,8.47,1.58,13.75,2.38Zm20.84,53.42c3.46,2.59,6.25,1.03,8.44-1.02,4.61-4.33,9.03-8.88,13.2-13.63.97-1.11,1.47-3.97.74-4.97-1.62-2.22-3.8-1.5-5.65.51-4.46,4.86-9.08,9.57-13.54,14.44-1.2,1.31-2.03,2.95-3.18,4.67Zm-5.74-137.21c.02,6.34,2.27,9.01,6.25,9.02,4.53.02,3.62-3.64,4.33-6.3.3-1.12,1.03-2.29,1.9-3.05,1.64-1.43,3.48-7.25,2.28-8.8-.55-.71-2.22-1.42-2.78-1.09-1.59.92-2.86,2.38-4.28,3.6-1.42,1.23-2.87,2.42-4.3,3.64-1.42,1.22-2.81,2.46-3.41,2.97Zm43.4,90.65c-.28-.37-.56-.75-.83-1.12h-10.39c-2.6,1.91-4.98,3.1-6.55,4.97-1.52,1.81-2.2,4.32-3.25,6.52,2.33-.08,4.79.28,6.94-.37,2.16-.65,4.12-2.18,6-3.55,2.77-2.04,5.4-4.29,8.08-6.45Zm83.64-128.63c.01,3.75,2.54,6.4,6.15,6.46,3.72.06,6.91-2.83,6.98-6.32.08-4.22-1.92-5.64-8.33-5.59-3.48.03-5,2.06-4.81,5.45Zm-28.34-51.45c1.14,1.98,1.52,3.53,2.37,3.86.76.3,2.14-.59,3.09-1.2,2.78-1.78,5.51-3.63,8.19-5.55,1.38-.99,2.62-2.2,3.92-3.3-2.48-1.57-6.35-5.02-7.21-4.38-3.9,2.87-6.94,6.89-10.36,10.57Zm187.71-6.02c-3.28.25-7.1.34-10.84.92-2.08.32-4.07,1.4-5.99,2.37-.22.11.36,2.48.48,2.47,2.16-.15,4.64.09,6.37-.93,4.06-2.38,6.8-1.95,9.49,2.07,2.08,3.1,4.73,2.59,6.48-.74,2.25-4.27.48-6.26-6.01-6.16Zm107.14,67.14c2.71-4.64,1.8-16.24-1.49-19.86-.64-.7-2.44-1.46-2.64-1.24-.98,1.09-2.09,2.44-2.25,3.81-.75,6.73,2.17,12.17,6.38,17.29Zm-399.09,166.36c1.43-.41,1.99-.4,2.2-.66,4.06-5.17,8.14-10.34,12.03-15.64.4-.55-.08-2.47-.71-2.85-.66-.4-2.43-.07-2.94.56-3.93,4.94-7.75,9.98-11.37,15.14-.45.64.48,2.23.79,3.45Zm-7.8-133.09c2.39-2.31,4.69-4.34,6.75-6.58,2.25-2.44,2.95-5.66.51-7.92-1.08-1-4.38-.39-6.26.42-3.08,1.34-3.41,9.82-1,14.08Zm367.92-2.74c-1-2.11-1.73-3.65-2.45-5.18-1.49,1.14-3.47,1.99-4.34,3.48-1.31,2.26-2.03,4.93-2.6,7.52-.22,1,.41,2.97,1.1,3.21,1.07.37,3.16.08,3.71-.7,1.78-2.56,3.06-5.47,4.58-8.33Zm-400.65,127.79c.98.8,3.8,3.58,4.16,3.29,2.57-2.06,4.65-4.74,6.89-7.23-1.78-1.02-3.48-2.7-5.35-2.91-3.15-.35-5.81,2.59-5.69,6.85Zm227.35,156.11c-.53,3.29.39,5.39,4.37,5.03,2.65-.24,5.6.24,5.52-3.88-.07-3.68-2.33-5.93-6-6.09-3.62-.15-4.25,1.92-3.88,4.94Zm-241.88-164.33c-3.9-1.64-6.35.07-8.02,2.94-1.05,1.79-1.47,3.95-2.17,5.94,2.24.11,4.55.62,6.68.19,1.32-.26,2.98-1.75,3.36-3.02.57-1.9.15-4.09.15-6.05Zm189.6-250.6c-7.26-1.06-12.31,2.7-11.38,8.64.14.87,1.39,2.19,2.17,2.22,3.33.12,9.29-7.11,9.21-10.86Zm81.95,190.92c1.16.32,2.32.89,3.48.89,1.66,0,3.31-.6,4.97-.65,2.95-.09,5.93.29,8.83-.07,1.16-.14,2.15-1.72,3.21-2.64-.67-.61-1.31-1.72-2-1.74-6.29-.23-12.62-.48-18.5,4.21Zm-74.6-193.68c0,1.47-.24,2.62.06,3.61.41,1.41,1.22,2.7,1.85,4.05,1.66-.96,3.51-1.71,4.89-2.97.8-.72.91-2.26,1.19-3.47.19-.82.46-2.14.08-2.44-.61-.48-1.74-.34-2.65-.36-1.73-.04-3.46-.01-5.19-.01-.15-.48-.3-.95-.46-1.43-1.29,1.23-2.58,2.46-3.87,3.69.15.17.3.34.45.51,1.09-.35,2.18-.71,3.65-1.18Zm-66.48,67.4c3.84,0,6.36-1.81,8.13-4.79.52-.87.56-2.02.81-3.04-1.18-.15-2.49-.72-3.5-.38-2.37.81-4.73,1.83-6.81,3.2-1.07.71-1.52,2.35-2.25,3.56l3.61,1.44Zm105.67-44.17c5.54,2.26,9.51.49,12.66-5.63-3.07-2.18-9.7.77-12.66,5.63Zm-52.61,169.79c-1.99,1.8-3.13,2.84-4.28,3.88,1.37,1.28,2.64,3.43,4.13,3.58,1.49.15,3.18-1.69,4.78-2.66-1.34-1.39-2.69-2.79-4.63-4.8Zm89.75-199.94c-.4.28-.81.56-1.21.85.45,1.57.72,4.41,1.38,4.5,2.71.39,5.55-.06,8.34-.2-.21-.92-.16-2.44-.66-2.64-2.54-1.02-5.22-1.7-7.85-2.5Zm1.04,296.68c-.46.14-.91.29-1.37.43l-3.77,7.48c.33.42.66.84.99,1.26,2.27-1.34,4.78-2.43,6.61-4.21.4-.39-1.59-3.24-2.47-4.96Zm-205.38-73.35c.25-.72.51-1.45.76-2.17-2.63-1.23-5.21-2.61-7.93-3.6-.67-.24-1.81.81-2.73,1.27.53.88.89,2.31,1.63,2.54,2.69.86,5.5,1.33,8.27,1.95Zm136.61-126.92c1.36-.47,2.73-.72,3.84-1.38,1.1-.65,1.94-1.72,2.9-2.61-1.35-1.16-2.69-2.32-4.04-3.48-.9,1.13-2.11,2.13-2.61,3.41-.44,1.15-.09,2.6-.09,4.06Zm-138.82,6.28c.08.92.04,1.34.16,1.71.68,2.09,1.6,4.25,4.31,3.15,1.52-.61,2.67-2.12,3.99-3.22-1.77-.68-3.5-1.48-5.32-1.97-.85-.23-1.87.17-3.13.32Zm150.01,10.38c-2.11-1.71-3.4-3.48-4.27-3.3-1.36.3-2.43,1.91-3.62,2.97,1.13,1.14,2.09,2.8,3.44,3.23.82.26,2.24-1.39,4.44-2.9Zm-84.81,96.01c3.41-.85,6.83-1.7,11.3-2.82-5.73-3.56-8.51-2.87-11.3,2.82Zm-173.05,63.45c-.07.47-.14.93-.21,1.4,3.81.72,7.6,1.5,11.43,2.06.51.07,1.17-.95,1.77-1.47-.74-.67-1.45-1.86-2.23-1.91-3.58-.21-7.17-.09-10.76-.09Zm93.24-113.61c2.07-.29,3.78-.53,5.48-.77-.37-2.51-.75-5.01-1.12-7.52-.32.09-.64.17-.97.26-.97,2.29-1.94,4.58-3.4,8.03Zm379.14,28.39c-1.69-.91-3.03-1.98-3.33-1.74-1.33,1.06-2.46,2.44-3.4,3.87-.13.19,1.7,2.04,1.81,1.96,1.5-1.06,2.86-2.31,4.92-4.09Zm-43.27-116.85c-1.95-.98-3.13-2.07-4.22-1.98-.85.07-2.38,2.13-2.22,2.38.79,1.18,1.94,2.32,3.22,2.86.41.17,1.62-1.59,3.22-3.26Zm-341.94,162.22c-.19-.53-.38-1.07-.57-1.6-3.5.53-7.38.05-9.92,3.19l.51,1.46c3.33-1.02,6.66-2.03,9.99-3.05Zm89.28-110.3c1.32-1.92,2.77-3.22,2.52-3.85-.43-1.1-1.8-2.06-2.99-2.49-.42-.15-2.17,1.5-2.07,2.14.18,1.19,1.27,2.23,2.54,4.19Zm377.87,148.13c.3-.67.6-1.33.9-2-1.1-.42-2.35-1.38-3.25-1.12-1.13.33-2.44,1.51-2.78,2.6-.21.69,1.21,1.88,1.9,2.85,1.08-.78,2.15-1.55,3.23-2.33Zm-415.12-185.32c-1.81,1.92-3.21,3.4-4.6,4.88.98.51,2.13,1.62,2.91,1.41,2.55-.69,3.41-2.49,1.69-6.29Zm81.63,147.1c-.17-.56-.34-1.13-.52-1.69-3.06-.61-6.06-1.07-7.11,3.92,2.54-.74,5.08-1.48,7.62-2.23Zm305.69,112.07c-1.3-2.63-2.26-4.57-3.22-6.51-.72.66-1.95,1.25-2.06,2-.4,2.72.74,4.45,5.28,4.51Zm-198.39-246.29c-.39-.46-.79-.92-1.18-1.38-1.65,1.5-3.31,3-4.96,4.5.51.51,1.05,1.5,1.52,1.47,2.84-.21,4.45-1.77,4.62-4.59Zm-308.48,90.19c.87,1.89,1.16,4.03,2.26,4.62,2.25,1.19,4.65,3.53,7.7,1.88-3.24-2.12-6.16-4.02-9.96-6.5ZM500.37,82.75c1.16-1.68,2.45-2.72,2.38-3.67-.06-.82-1.75-2.22-2.54-2.11-.93.13-2.12,1.54-2.31,2.56-.13.7,1.24,1.69,2.48,3.22Zm-57.43,270.98c.33.82.66,1.63.99,2.45,2.25-1.13,4.5-2.25,6.75-3.38-.31-.67-.62-1.34-.93-2.01-2.27.98-4.54,1.96-6.81,2.94ZM593.18,24.07c-1.41-1.56-2.42-2.67-3.42-3.78-.58.98-1.76,2.1-1.58,2.91.26,1.17,1.51,2.12,2.34,3.16.73-.63,1.47-1.26,2.67-2.29Zm-216,170.09c-1.79-1.08-2.81-2.18-3.52-2.01-1.07.26-1.93,1.4-2.87,2.17.76.77,1.55,2.19,2.29,2.16,1.07-.04,2.11-1.12,4.1-2.33Z"/>
    <path class="cls-1" d="m481.36,560.94c0,.28,0,.56,0,.84-.1,3.28.86,7.08-3.45,8.54-4.26,1.44-11.17-1.09-13.52-4.73-2.53-3.91-2.15-7.15,1-11.07,1.39-1.73,2.25-3.89,3.69-5.56.71-.82,2.45-1.64,3.3-1.32,6.65,2.5,8.99,6.14,8.98,13.3Z"/>
    <path class="cls-1" d="m467.53,49.41c1.32-6.82,22.08-23.49,30.05-24.43.74,1.94,2.02,3.83,2.01,5.72,0,1.45-1.27,3.44-2.57,4.26-4.96,3.13-10.17,5.85-15.24,8.81-1.18.69-2.84,1.51-3.13,2.58-1.5,5.62-5.23,4.7-9.18,3.53-.64-.19-1.3-.31-1.95-.46Z"/>
    <path class="cls-1" d="m781.65,251.45c-4.05,4.43-2.97,11.4-1.98,18.36-.54-.01-1.08-.02-1.61-.03-1.06-3.35-2.36-6.66-3.12-10.08-.58-2.62-1.88-3.9-4.44-4.18-1.1-.12-2.29-.15-3.27-.6-3.25-1.5-5.76-2.09-5.66,2.95.01.56-1.5,1.15-2.3,1.73-.42-.96-1.44-2.21-1.15-2.84,2.38-5.1,3.43-10.98,9.02-14.2,3.18-1.83,9.24-.53,10.66,2.69.81,1.84,2.12,3.46,3.85,6.21Z"/>
    <path class="cls-1" d="m577.09,230.12c4.64-3.74,8.86-6.85,12.7-10.37,1.43-1.32,2.42-3.53,2.79-5.5.39-2.08.42-3.64,3.01-4.28,1.46-.36,2.51-2.13,3.93-2.96.82-.48,2.1-.65,2.98-.37.45.15.62,1.61.62,2.49,0,.81-.77,1.8-.5,2.4,2.45,5.44-1.27,6.47-5.13,8.07-2.62,1.08-5.24,2.93-7,5.12-3.36,4.16-7.92,4.64-13.39,5.4Z"/>
    <path class="cls-1" d="m162.94,217.07c3.06-2.34,5.86-5.22,9.27-6.81,2.05-.96,5.28-.5,7.54.41,2.42.98,2.19,3.21.17,5.07-1.4,1.29-2.58,2.82-3.89,4.2-.46.48-1.1,1.28-1.54,1.21-3.75-.61-7.47-1.39-11.2-2.13-.11-.65-.23-1.31-.34-1.96Z"/>
    <path class="cls-1" d="m531.35,14.49c3.04-3.82,6-7.9,9.43-11.55.78-.83,4.54-.4,4.59-.11.46,2.43,1.19,5.31.28,7.37-1.52,3.46-11.85,5.53-14.3,4.29Z"/>
    <path class="cls-1" d="m317.85,286.99c-1.45,1.88-2.8,5.16-4.29,5.22-2.71.11-5.56-1.55-8.19-2.82-.41-.19-.27-2.33.19-3.3.58-1.22,1.57-2.47,2.71-3.14,2.07-1.22,4.38-2.01,6.59-2.99.89,2.08,1.77,4.16,2.99,7.02Z"/>
    <path class="cls-1" d="m514.98,13.48c-.75,11.58-1.99,13.58-9.22,14.1-.44-2.63-2.18-6.27-1.06-7.82,2.26-3.12,6.09-5.11,9.27-7.57.33.43.67.86,1,1.29Z"/>
    <path class="cls-1" d="m502.07,554.11c.09-5.6,2.29-8.67,5.24-8.61,3.43.07,4.45,2.48,4.5,5.4.06,3.36-3.3,7.32-6.18,6.63-1.7-.41-2.93-2.77-3.56-3.42Z"/>
    <path class="cls-1" d="m700.88,308.81c-.15.15-.96,1.72-1.89,1.79-3.02.23-6.26-3.99-6.3-7.69-.02-1.87-.21-3.78,2.57-3.85,3.29-.08,5.61,3.28,5.63,9.75Z"/>
    <path class="cls-1" d="m812.46,325.91c.68.77,1.63,1.43,1.97,2.33.35.91.52,2.43.01,3.02-1.82,2.13-3.88,4.09-6.05,5.86-.59.48-1.9.07-2.88.06.08-1.11-.12-3.07.28-3.2,2.7-.89,2.98-2.7,2.98-5.16,0-1.37,1.13-2.75,1.75-4.12.64.4,1.28.81,1.93,1.21Z"/>
    <path class="cls-1" d="m745.05,339.38c-2.37-4.83-.86-11.78,2.36-13.27,1.15-.53,2.69-.25,4.05-.33.08.46.16.92.24,1.38-1.06.82-2.12,1.63-3.4,2.62,5.95,5.93-3.64,5.11-3.25,9.6Z"/>
    <path class="cls-1" d="m680.42,315.89c-5.02,1.9-10.04,3.79-15.69,5.93,1.34-3.84,2.37-6.81,3.41-9.77.32.05.65.1.97.15.47,1.23.94,2.46,1.66,4.35,3-.71,6.08-1.44,9.15-2.17.17.5.33,1.01.5,1.51Z"/>
    <path class="cls-1" d="m274.52,253.98c-.74,2.89-5.68,7.46-8.13,7.34-.71-.04-1.9-.61-1.98-1.09-.16-.97-.05-2.59.55-2.96,2.82-1.75,5.84-3.16,8.79-4.69.26.47.51.93.77,1.4Z"/>
    <path class="cls-1" d="m236.84,252.54c2.05,2.51,3.62,4.02,4.53,5.85.22.44-2.43,2.93-2.56,2.83-1.87-1.37-3.62-2.94-5.12-4.7-.16-.18,1.47-1.88,3.15-3.98Z"/>
    <path class="cls-1" d="m167.53,306.16c3.69-4.5,8.25-4.98,10.42-1.1-4.63,3.36-7.62,3.67-10.42,1.1Z"/>
    <path class="cls-1" d="m335.72,394.41c-.79,3.44,1.83,6.85-2.31,8.22-.78.26-2.98-1.26-3.19-2.25-.75-3.5,1.79-4.69,5.5-5.97Z"/>
    <path class="cls-1" d="m746.24,281c-2.18,1.42-3.53,2.69-5.11,3.13-.62.17-1.75-1.53-2.65-2.38,1.52-1.22,2.97-2.57,4.64-3.54.27-.16,1.5,1.31,3.13,2.79Z"/>
    <path class="cls-1" d="m751.92,266.93q1.79,2.34-7.01,6.96l-1.47-1.47c2.86-1.85,5.71-3.7,8.48-5.49Z"/>
    <path class="cls-1" d="m696.72,183.85c-1.32.69-2.66,1.89-3.97,1.86-.73-.02-1.42-2.08-2.12-3.21.26-.32.52-.63.78-.95,1.7.35,3.4.7,5.1,1.05.07.42.14.84.21,1.26Z"/>
    <path class="cls-1" d="m287.71,258.21c2-.4,4.01-.79,6.01-1.19.14.71.28,1.42.42,2.12-2.02.46-4.05.92-6.07,1.38-.12-.77-.24-1.55-.37-2.32Z"/>
    <path class="cls-1" d="m738.37,408.96l4.82-2.64c.35.62.7,1.25,1.05,1.87-1.55.87-3.09,1.74-4.64,2.62-.41-.61-.82-1.23-1.23-1.84Z"/>
  </g>
  <g>
    <path class="cls-2" d="m842.43,129.63h33.56c28.72,0,52.42,22.66,52.42,51.9,0,27.51-21.28,51.9-52.42,51.9h-33.56v-103.8Zm33.04,81.66c16.09,0,29.58-11.76,29.58-29.76,0-16.61-12.11-29.76-29.58-29.76h-10.55v59.51h10.55Z"/>
    <path class="cls-2" d="m939.65,129.63h40.66c19.38,0,34.25,13.32,34.25,32.7,0,14.88-9.51,26.99-24.39,31.14v.35l26.82,39.62h-26.64l-27.85-42.56h-.35v42.56h-22.49v-103.8Zm42.39,42.73c6.05,0,10.38-3.63,10.38-10.03,0-5.54-4.84-10.03-10.38-10.03h-19.9v20.07h19.9Z"/>
    <path class="cls-2" d="m1068.54,126.17h2.94l47.75,107.26h-24.22l-4.84-10.9h-40.48l-4.67,10.9h-24.22l47.75-107.26Zm13.32,77.33l-11.76-27.68h-.35l-11.94,27.68h24.05Z"/>
    <path class="cls-2" d="m1176.67,126.17c16.26,0,29.93,7.09,39.96,18.51l-14.71,14.71c-6.75-6.92-15.22-11.42-25.26-11.42-18.51,0-33.22,14.36-33.22,32.87s12.28,34.25,33.22,34.25c10.03,0,18.51-4.5,25.26-11.42l14.71,14.71c-10.03,11.42-23.7,18.51-39.96,18.51-32.53,0-56.57-21.8-56.57-54.84,0-35.47,29.58-55.88,56.57-55.88Z"/>
    <path class="cls-2" d="m1224.41,129.63h22.49v41.52h40.48v-41.52h22.49v103.8h-22.49v-42.39h-40.48v42.39h-22.49v-103.8Z"/>
    <path class="cls-2" d="m1321.98,129.63h64.01v21.63h-41.52v19.9h38.23v21.63h-38.23v19.03h43.25v21.63h-65.74v-103.8Z"/>
    <path class="cls-2" d="m1396.37,129.63h22.49l41.17,62.63h.35v-62.63h22.49v103.8h-22.49l-41.17-62.63h-.35v62.63h-22.49v-103.8Z"/>
    <path class="cls-2" d="m1494.98,129.63h39.1c16.09,0,28.89,12.8,28.89,28.89,0,10.21-3.98,16.78-11.25,21.28v.35c10.38,6.75,15.05,15.57,15.05,26.12,0,14.19-10.55,27.16-28.89,27.16h-42.91v-103.8Zm34.77,41.52c6.23,0,10.38-3.81,10.38-10.03,0-5.71-4.15-10.21-10.38-10.21h-12.28v20.24h12.28Zm3.29,40.83c6.05,0,9.86-3.98,9.86-9.86,0-5.36-3.81-9.52-9.86-9.52h-15.57v19.38h15.57Z"/>
    <path class="cls-2" d="m1575.42,129.63h22.49v82.18h43.25v21.63h-65.74v-103.8Z"/>
    <path class="cls-2" d="m1646.35,129.63h22.49v65.22c0,14.53,6.57,19.72,15.57,19.72,9.51,0,15.74-5.19,15.74-19.72v-65.22h22.49v69.2c0,24.22-17.13,38.06-38.23,38.06-22.32,0-38.06-14.36-38.06-38.06v-69.2Z"/>
    <path class="cls-2" d="m1753.79,151.26h-22.49v-21.63h67.47v21.63h-22.49v82.18h-22.49v-82.18Z"/>
    <path class="cls-2" d="m863.88,411.62c0,6.06,5.19,10.9,11.25,10.9,5.71,0,10.55-3.98,10.55-9.69,0-9.51-10.73-11.59-19.55-14.53-17.47-5.88-24.22-16.09-24.22-31.31,0-18.17,14.71-33.22,32.87-33.22s32.87,14.71,32.87,32.87h-21.97c0-6.06-4.84-10.9-10.9-10.9s-10.38,3.98-10.38,10.38c0,8.13,8.48,10.9,17.3,13.49,16.95,4.84,25.95,14.36,25.95,31.66,0,18.17-14.71,33.22-32.87,33.22s-32.87-14.71-32.87-32.87h21.97Z"/>
    <path class="cls-2" d="m973.91,333.77c30.62,0,55.36,24.74,55.36,55.36s-24.74,55.36-55.36,55.36-55.36-24.74-55.36-55.36,24.74-55.36,55.36-55.36Zm0,88.06c17.99,0,32.7-14.71,32.7-32.7s-14.71-32.7-32.7-32.7-32.7,14.71-32.7,32.7,14.71,32.7,32.7,32.7Z"/>
    <path class="cls-2" d="m1040.51,337.23h62.28v21.63h-39.79v23.36h36.5v21.62h-36.5v37.2h-22.49v-103.8Z"/>
    <path class="cls-2" d="m1133.06,358.86h-22.49v-21.63h67.47v21.63h-22.49v82.18h-22.49v-82.18Z"/>
    <path class="cls-2" d="m1182.37,337.23h23.36l20.41,51.38h.35l12.98-35.29-6.05-16.09h23.36l20.07,51.38h.35l18.86-51.38h23.36l-40.83,107.26h-1.9l-25.26-62.46-24.05,62.46h-1.9l-43.08-107.26Z"/>
    <path class="cls-2" d="m1376.48,333.77c30.62,0,55.36,24.74,55.36,55.36s-24.74,55.36-55.36,55.36-55.36-24.74-55.36-55.36,24.74-55.36,55.36-55.36Zm0,88.06c17.99,0,32.7-14.71,32.7-32.7s-14.71-32.7-32.7-32.7-32.7,14.71-32.7,32.7,14.71,32.7,32.7,32.7Z"/>
    <path class="cls-2" d="m1443.08,337.23h40.66c19.38,0,34.25,13.32,34.25,32.7,0,14.88-9.51,26.99-24.39,31.14v.35l26.82,39.62h-26.64l-27.85-42.56h-.35v42.56h-22.49v-103.8Zm42.39,42.73c6.05,0,10.38-3.63,10.38-10.03,0-5.54-4.84-10.04-10.38-10.04h-19.9v20.07h19.9Z"/>
    <path class="cls-2" d="m1527.67,337.23h22.49v47.75h.35l30.79-47.75h24.91l-33.39,49.31,35.12,54.5h-24.74l-32.7-51.9h-.35v51.9h-22.49v-103.8Z"/>
    <path class="cls-2" d="m1629.4,411.62c0,6.06,5.19,10.9,11.25,10.9,5.71,0,10.55-3.98,10.55-9.69,0-9.51-10.73-11.59-19.55-14.53-17.47-5.88-24.22-16.09-24.22-31.31,0-18.17,14.71-33.22,32.87-33.22s32.87,14.71,32.87,32.87h-21.97c0-6.06-4.84-10.9-10.9-10.9s-10.38,3.98-10.38,10.38c0,8.13,8.48,10.9,17.3,13.49,16.95,4.84,25.95,14.36,25.95,31.66,0,18.17-14.71,33.22-32.87,33.22s-32.87-14.71-32.87-32.87h21.97Z"/>
  </g>
  <g>
    <path class="cls-2" d="m23.55,590.32c6.77,0,12.46,2.95,16.63,7.7l-6.12,6.12c-2.81-2.88-6.34-4.75-10.51-4.75-7.7,0-13.83,5.98-13.83,13.68s5.11,14.26,13.83,14.26c4.18,0,7.71-1.87,10.51-4.75l6.12,6.12c-4.18,4.75-9.87,7.71-16.63,7.71-13.54,0-23.55-9.07-23.55-22.83,0-14.76,12.31-23.26,23.55-23.26Z"/>
    <path class="cls-2" d="m63.94,590.32c12.75,0,23.04,10.3,23.04,23.04s-10.3,23.04-23.04,23.04-23.04-10.3-23.04-23.04,10.3-23.04,23.04-23.04Zm0,36.65c7.49,0,13.61-6.12,13.61-13.61s-6.12-13.61-13.61-13.61-13.61,6.12-13.61,13.61,6.12,13.61,13.61,13.61Z"/>
    <path class="cls-2" d="m91.66,591.76h9.5l10.08,23.91,10.08-23.91h9.36v43.2h-9.36v-21.1l-9.58,22.54h-1.08l-9.65-22.83v21.39h-9.36v-43.2Z"/>
    <path class="cls-2" d="m135.72,591.76h16.27c6.7,0,12.03,5.33,12.03,12.03,0,4.25-1.66,6.98-4.68,8.86v.14c4.32,2.81,6.26,6.48,6.26,10.87,0,5.9-4.39,11.3-12.02,11.3h-17.86v-43.2Zm14.47,17.28c2.59,0,4.32-1.58,4.32-4.18,0-2.38-1.73-4.25-4.32-4.25h-5.11v8.42h5.11Zm1.37,16.99c2.52,0,4.1-1.66,4.1-4.1,0-2.23-1.58-3.96-4.1-3.96h-6.48v8.06h6.48Z"/>
    <path class="cls-2" d="m169.2,591.76h9.36v43.2h-9.36v-43.2Z"/>
    <path class="cls-2" d="m183.6,591.76h9.36l17.14,26.07h.14v-26.07h9.36v43.2h-9.36l-17.14-26.07h-.14v26.07h-9.36v-43.2Z"/>
    <path class="cls-2" d="m224.64,591.76h9.36v43.2h-9.36v-43.2Z"/>
    <path class="cls-2" d="m239.04,591.76h9.36l17.14,26.07h.14v-26.07h9.36v43.2h-9.36l-17.14-26.07h-.14v26.07h-9.36v-43.2Z"/>
    <path class="cls-2" d="m303.26,590.32c6.77,0,12.1,2.66,16.27,7.42l-6.12,6.12c-2.81-2.88-5.98-4.46-10.15-4.46-7.7,0-13.75,6.05-13.75,13.75s5.9,13.83,13.39,13.83,11.16-3.6,12.31-8.78h-12.82v-9h22.97v4.32c0,12.75-7.63,22.9-22.47,22.9-12.75,0-22.97-10.3-22.97-23.04,0-14.76,12.1-23.04,23.33-23.04Z"/>
    <path class="cls-2" d="m348.12,591.76h9.5l10.08,23.91,10.08-23.91h9.36v43.2h-9.36v-21.1l-9.58,22.54h-1.08l-9.65-22.83v21.39h-9.36v-43.2Z"/>
    <path class="cls-2" d="m410.61,590.32h1.22l19.87,44.64h-10.08l-2.02-4.54h-16.85l-1.94,4.54h-10.08l19.87-44.64Zm5.54,32.19l-4.9-11.52h-.14l-4.97,11.52h10.01Z"/>
    <path class="cls-2" d="m436.75,600.76h-9.36v-9h28.08v9h-9.36v34.2h-9.36v-34.2Z"/>
    <path class="cls-2" d="m459.07,591.76h9.36v17.28h16.85v-17.28h9.36v43.2h-9.36v-17.64h-16.85v17.64h-9.36v-43.2Z"/>
    <path class="cls-2" d="m499.68,591.76h26.64v9h-17.28v8.28h15.91v9h-15.91v7.92h18v9h-27.36v-43.2Z"/>
    <path class="cls-2" d="m530.64,591.76h9.5l10.08,23.91,10.08-23.91h9.36v43.2h-9.36v-21.1l-9.58,22.54h-1.08l-9.65-22.83v21.39h-9.36v-43.2Z"/>
    <path class="cls-2" d="m593.13,590.32h1.22l19.87,44.64h-10.08l-2.02-4.54h-16.85l-1.94,4.54h-10.08l19.87-44.64Zm5.54,32.19l-4.9-11.52h-.14l-4.97,11.52h10.01Z"/>
    <path class="cls-2" d="m619.27,600.76h-9.36v-9h28.08v9h-9.36v34.2h-9.36v-34.2Z"/>
    <path class="cls-2" d="m641.59,591.76h9.36v43.2h-9.36v-43.2Z"/>
    <path class="cls-2" d="m679.17,590.32c6.77,0,12.46,2.95,16.63,7.7l-6.12,6.12c-2.81-2.88-6.34-4.75-10.51-4.75-7.7,0-13.83,5.98-13.83,13.68s5.11,14.26,13.83,14.26c4.18,0,7.71-1.87,10.51-4.75l6.12,6.12c-4.18,4.75-9.87,7.71-16.63,7.71-13.54,0-23.55-9.07-23.55-22.83,0-14.76,12.31-23.26,23.55-23.26Z"/>
    <path class="cls-2" d="m707.25,622.72c0,2.52,2.16,4.54,4.68,4.54,2.38,0,4.39-1.66,4.39-4.03,0-3.96-4.46-4.82-8.14-6.05-7.27-2.45-10.08-6.7-10.08-13.03,0-7.56,6.12-13.83,13.68-13.83s13.68,6.12,13.68,13.68h-9.15c0-2.52-2.02-4.54-4.54-4.54s-4.32,1.66-4.32,4.32c0,3.38,3.53,4.54,7.2,5.62,7.06,2.02,10.8,5.98,10.8,13.18,0,7.56-6.12,13.83-13.68,13.83s-13.68-6.12-13.68-13.68h9.14Z"/>
    <path class="cls-2" d="m765.72,590.32h1.22l19.87,44.64h-10.08l-2.02-4.54h-16.85l-1.94,4.54h-10.08l19.87-44.64Zm5.54,32.19l-4.9-11.52h-.14l-4.97,11.52h10.01Z"/>
    <path class="cls-2" d="m790.41,591.76h9.36l17.14,26.07h.14v-26.07h9.36v43.2h-9.36l-17.14-26.07h-.14v26.07h-9.36v-43.2Z"/>
    <path class="cls-2" d="m831.45,591.76h13.97c11.95,0,21.82,9.43,21.82,21.6,0,11.45-8.86,21.6-21.82,21.6h-13.97v-43.2Zm13.75,33.99c6.7,0,12.31-4.9,12.31-12.38,0-6.91-5.04-12.39-12.31-12.39h-4.39v24.77h4.39Z"/>
    <path class="cls-2" d="m889.55,591.76h13.97c11.95,0,21.82,9.43,21.82,21.6,0,11.45-8.86,21.6-21.82,21.6h-13.97v-43.2Zm13.75,33.99c6.7,0,12.31-4.9,12.31-12.38,0-6.91-5.04-12.39-12.31-12.39h-4.39v24.77h4.39Z"/>
    <path class="cls-2" d="m930.02,591.76h26.64v9h-17.28v8.28h15.91v9h-15.91v7.92h18v9h-27.36v-43.2Z"/>
    <path class="cls-2" d="m969.91,622.72c0,2.52,2.16,4.54,4.68,4.54,2.38,0,4.39-1.66,4.39-4.03,0-3.96-4.46-4.82-8.14-6.05-7.27-2.45-10.08-6.7-10.08-13.03,0-7.56,6.12-13.83,13.68-13.83s13.68,6.12,13.68,13.68h-9.15c0-2.52-2.02-4.54-4.54-4.54s-4.32,1.66-4.32,4.32c0,3.38,3.53,4.54,7.2,5.62,7.06,2.02,10.8,5.98,10.8,13.18,0,7.56-6.12,13.83-13.68,13.83s-13.68-6.12-13.68-13.68h9.15Z"/>
    <path class="cls-2" d="m993.02,591.76h9.36v43.2h-9.36v-43.2Z"/>
    <path class="cls-2" d="m1030.6,590.32c6.77,0,12.1,2.66,16.27,7.42l-6.12,6.12c-2.81-2.88-5.98-4.46-10.15-4.46-7.7,0-13.75,6.05-13.75,13.75s5.9,13.83,13.39,13.83,11.16-3.6,12.31-8.78h-12.82v-9h22.97v4.32c0,12.75-7.63,22.9-22.47,22.9-12.75,0-22.97-10.3-22.97-23.04,0-14.76,12.1-23.04,23.33-23.04Z"/>
    <path class="cls-2" d="m1057.82,591.76h9.36l17.14,26.07h.14v-26.07h9.36v43.2h-9.36l-17.14-26.07h-.14v26.07h-9.36v-43.2Z"/>
    <path class="cls-2" d="m1123.7,600.76h-9.36v-9h28.08v9h-9.36v34.2h-9.36v-34.2Z"/>
    <path class="cls-2" d="m1165.82,590.32c12.75,0,23.04,10.3,23.04,23.04s-10.3,23.04-23.04,23.04-23.04-10.3-23.04-23.04,10.3-23.04,23.04-23.04Zm0,36.65c7.49,0,13.61-6.12,13.61-13.61s-6.12-13.61-13.61-13.61-13.61,6.12-13.61,13.61,6.12,13.61,13.61,13.61Z"/>
    <path class="cls-2" d="m1233.64,590.32c6.77,0,12.46,2.95,16.63,7.7l-6.12,6.12c-2.81-2.88-6.34-4.75-10.51-4.75-7.7,0-13.83,5.98-13.83,13.68s5.11,14.26,13.83,14.26c4.18,0,7.71-1.87,10.51-4.75l6.12,6.12c-4.18,4.75-9.87,7.71-16.63,7.71-13.54,0-23.55-9.07-23.55-22.83,0-14.76,12.31-23.26,23.55-23.26Z"/>
    <path class="cls-2" d="m1253.51,591.76h16.92c8.07,0,14.26,5.54,14.26,13.61,0,6.19-3.96,11.23-10.15,12.96v.14l11.16,16.49h-11.09l-11.59-17.71h-.14v17.71h-9.36v-43.2Zm17.64,17.79c2.52,0,4.32-1.51,4.32-4.18,0-2.3-2.02-4.18-4.32-4.18h-8.28v8.35h8.28Z"/>
    <path class="cls-2" d="m1288.72,591.76h26.64v9h-17.28v8.28h15.91v9h-15.91v7.92h18v9h-27.36v-43.2Z"/>
    <path class="cls-2" d="m1338.11,590.32h1.22l19.87,44.64h-10.08l-2.02-4.54h-16.85l-1.94,4.54h-10.08l19.87-44.64Zm5.54,32.19l-4.9-11.52h-.14l-4.97,11.52h10.01Z"/>
    <path class="cls-2" d="m1364.25,600.76h-9.36v-9h28.08v9h-9.36v34.2h-9.36v-34.2Z"/>
    <path class="cls-2" d="m1386.57,591.76h26.64v9h-17.28v8.28h15.91v9h-15.91v7.92h18v9h-27.36v-43.2Z"/>
    <path class="cls-2" d="m1458.35,590.32c6.77,0,12.46,2.95,16.63,7.7l-6.12,6.12c-2.81-2.88-6.34-4.75-10.51-4.75-7.7,0-13.83,5.98-13.83,13.68s5.11,14.26,13.83,14.26c4.18,0,7.71-1.87,10.51-4.75l6.12,6.12c-4.18,4.75-9.87,7.71-16.63,7.71-13.54,0-23.55-9.07-23.55-22.83,0-14.76,12.31-23.26,23.55-23.26Z"/>
    <path class="cls-2" d="m1498.74,590.32c12.75,0,23.04,10.3,23.04,23.04s-10.3,23.04-23.04,23.04-23.04-10.3-23.04-23.04,10.3-23.04,23.04-23.04Zm0,36.65c7.49,0,13.61-6.12,13.61-13.61s-6.12-13.61-13.61-13.61-13.61,6.12-13.61,13.61,6.12,13.61,13.61,13.61Z"/>
    <path class="cls-2" d="m1526.46,591.76h9.5l10.08,23.91,10.08-23.91h9.36v43.2h-9.36v-21.1l-9.58,22.54h-1.08l-9.65-22.83v21.39h-9.36v-43.2Z"/>
    <path class="cls-2" d="m1570.53,591.76h16.49c8.21,0,13.46,6.26,13.46,13.47,0,8.06-6.05,13.46-13.46,13.46h-7.13v16.27h-9.36v-43.2Zm15.99,17.79c2.52,0,4.32-1.51,4.32-4.18,0-2.3-2.02-4.18-4.32-4.18h-6.62v8.35h6.62Z"/>
    <path class="cls-2" d="m1605.16,591.76h26.64v9h-17.28v8.28h15.91v9h-15.91v7.92h18v9h-27.36v-43.2Z"/>
    <path class="cls-2" d="m1636.12,591.76h9.36v34.2h18v9h-27.36v-43.2Z"/>
    <path class="cls-2" d="m1667.08,591.76h9.36v34.2h18v9h-27.36v-43.2Z"/>
    <path class="cls-2" d="m1698.04,591.76h9.36v43.2h-9.36v-43.2Z"/>
    <path class="cls-2" d="m1712.43,591.76h9.36l17.14,26.07h.14v-26.07h9.36v43.2h-9.36l-17.14-26.07h-.14v26.07h-9.36v-43.2Z"/>
    <path class="cls-2" d="m1776.66,590.32c6.77,0,12.1,2.66,16.27,7.42l-6.12,6.12c-2.81-2.88-5.98-4.46-10.15-4.46-7.7,0-13.75,6.05-13.75,13.75s5.9,13.83,13.39,13.83,11.16-3.6,12.31-8.78h-12.82v-9h22.97v4.32c0,12.75-7.63,22.9-22.47,22.9-12.75,0-22.97-10.3-22.97-23.04,0-14.76,12.1-23.04,23.33-23.04Z"/>
    <path class="cls-2" d="m1838.51,590.32h1.22l19.87,44.64h-10.08l-2.02-4.54h-16.85l-1.94,4.54h-10.08l19.87-44.64Zm5.54,32.19l-4.9-11.52h-.14l-4.97,11.52h10.01Z"/>
    <path class="cls-2" d="m1863.2,591.76h16.92c8.07,0,14.26,5.54,14.26,13.61,0,6.19-3.96,11.23-10.15,12.96v.14l11.16,16.49h-11.09l-11.59-17.71h-.14v17.71h-9.36v-43.2Zm17.64,17.79c2.52,0,4.32-1.51,4.32-4.18,0-2.3-2.02-4.18-4.32-4.18h-8.28v8.35h8.28Z"/>
    <path class="cls-2" d="m1905.61,600.76h-9.36v-9h28.08v9h-9.36v34.2h-9.36v-34.2Z"/>
  </g>
</svg>